<svg width="105" height="24" viewBox="0 0 105 24" fill="none" xmlns="http://www.w3.org/2000/svg">
<g clip-path="url(#clip0_131_1274)">
<path d="M12.1164 0.1644C18.9137 0.1149 24.4199 5.5164 24.4199 12.1057V22.74C24.4199 23.3453 23.9137 23.8359 23.2894 23.8359H12.319C5.52159 23.8359 -0.0505371 18.4983 0.000543594 11.9093C0.0506229 5.44445 5.44738 0.212963 12.1164 0.1644Z" fill="#E2C700"/>
<path d="M2.0197 5.47931C4.08026 13.5288 11.4908 19.4881 20.3172 19.4881C21.7262 19.4881 23.0991 19.3359 24.4199 19.048V22.7401C24.4199 23.3453 23.9138 23.836 23.2894 23.836H12.319C5.52159 23.836 -0.0505371 18.4984 0.000543594 11.9093C0.0189533 9.534 0.759844 7.32572 2.0197 5.47931Z" fill="#F7E353"/>
</g>
<path d="M41.6152 14.85C41.5067 15.3034 41.3235 15.7434 41.0658 16.17C40.808 16.5834 40.4892 16.9567 40.1093 17.29C39.7295 17.61 39.2953 17.87 38.8069 18.07C38.3186 18.2567 37.7962 18.35 37.24 18.35C36.6024 18.35 35.9987 18.23 35.4289 17.99C34.8727 17.7367 34.3775 17.3967 33.9434 16.97C33.5228 16.5434 33.1836 16.05 32.9259 15.49C32.6817 14.9167 32.5596 14.3034 32.5596 13.65C32.5596 12.9967 32.6817 12.39 32.9259 11.83C33.1836 11.2567 33.5228 10.7567 33.9434 10.33C34.3775 9.90336 34.8727 9.57003 35.4289 9.33003C35.9987 9.07669 36.6024 8.95003 37.24 8.95003C37.7962 8.95003 38.3186 9.05003 38.8069 9.25003C39.2953 9.43669 39.7295 9.69669 40.1093 10.03C40.4892 10.35 40.808 10.7234 41.0658 11.15C41.3235 11.5634 41.5067 11.9967 41.6152 12.45H39.275C39.1665 12.21 39.0172 11.9967 38.8273 11.81C38.6645 11.65 38.4542 11.5034 38.1965 11.37C37.9387 11.2234 37.6199 11.15 37.24 11.15C36.5753 11.15 36.019 11.3767 35.5713 11.83C35.1236 12.2834 34.8998 12.89 34.8998 13.65C34.8998 14.41 35.1236 15.0167 35.5713 15.47C36.019 15.9234 36.5753 16.15 37.24 16.15C37.6199 16.15 37.9387 16.0834 38.1965 15.95C38.4542 15.8167 38.6645 15.67 38.8273 15.51C39.0172 15.3234 39.1665 15.1034 39.275 14.85H41.6152Z" fill="#101C26"/>
<path d="M47.2114 8.95003C47.7134 8.95003 48.1814 9.04336 48.6155 9.23003C49.0632 9.40336 49.4431 9.66336 49.7551 10.01C50.0671 10.3434 50.3113 10.75 50.4877 11.23C50.6776 11.71 50.7726 12.25 50.7726 12.85V18.25H48.4324V13.15C48.4324 12.55 48.2492 12.07 47.8829 11.71C47.5302 11.3367 47.069 11.15 46.4992 11.15C45.9294 11.15 45.4613 11.3367 45.095 11.71C44.7423 12.07 44.5659 12.55 44.5659 13.15V18.25H42.2257V5.65002H44.5659V9.95003C44.7423 9.76336 44.9526 9.59669 45.1968 9.45003C45.4138 9.33003 45.6852 9.21669 46.0108 9.11003C46.3499 9.00336 46.7501 8.95003 47.2114 8.95003Z" fill="#101C26"/>
<path d="M55.7662 8.95003C56.2953 8.95003 56.7837 9.04336 57.2314 9.23003C57.6791 9.40336 58.0658 9.65003 58.3914 9.97003C58.717 10.29 58.9679 10.67 59.1443 11.11C59.3342 11.55 59.4292 12.03 59.4292 12.55V18.25H57.6995L57.2925 17.35C57.0754 17.5367 56.838 17.7034 56.5802 17.85C56.3496 17.9834 56.0715 18.1034 55.7459 18.21C55.4203 18.3034 55.054 18.35 54.647 18.35C53.6295 18.35 52.8494 18.11 52.3068 17.63C51.7641 17.1367 51.4928 16.51 51.4928 15.75C51.4928 15.2967 51.581 14.8834 51.7573 14.51C51.9473 14.1234 52.2593 13.7967 52.6934 13.53C53.1276 13.25 53.6974 13.0367 54.4028 12.89C55.1218 12.73 56.0172 12.65 57.089 12.65C57.089 12.1434 56.9465 11.75 56.6616 11.47C56.3903 11.19 56.024 11.05 55.5628 11.05C55.2507 11.05 54.9997 11.1034 54.8098 11.21C54.6334 11.3167 54.491 11.43 54.3825 11.55C54.2604 11.6967 54.179 11.8634 54.1383 12.05H51.798C51.8523 11.6234 51.9744 11.2234 52.1643 10.85C52.3678 10.4767 52.6392 10.15 52.9783 9.87003C53.3175 9.59003 53.7177 9.37003 54.179 9.21003C54.6538 9.03669 55.1829 8.95003 55.7662 8.95003ZM55.054 16.55C55.6645 16.55 56.1529 16.3767 56.5192 16.03C56.8991 15.67 57.089 15.21 57.089 14.65V14.25C56.3971 14.25 55.8409 14.2834 55.4203 14.35C54.9997 14.4034 54.6674 14.49 54.4232 14.61C54.1925 14.7167 54.0365 14.85 53.9551 15.01C53.8737 15.17 53.833 15.35 53.833 15.55C53.833 15.8034 53.9483 16.0367 54.179 16.25C54.4096 16.45 54.7013 16.55 55.054 16.55Z" fill="#101C26"/>
<path d="M61.3593 6.85002H63.3942V9.05003H65.4292V11.15H63.3942V14.95C63.3942 15.35 63.5095 15.67 63.7402 15.91C63.9844 16.1367 64.31 16.25 64.717 16.25C64.8255 16.25 64.9137 16.25 64.9815 16.25C65.0493 16.2367 65.1104 16.2234 65.1647 16.21C65.2189 16.1967 65.2732 16.1767 65.3275 16.15V18.15C65.2325 18.19 65.124 18.2234 65.0019 18.25C64.7712 18.3167 64.5067 18.35 64.2082 18.35C63.747 18.35 63.3196 18.2767 62.9262 18.13C62.5463 17.97 62.2139 17.7434 61.929 17.45C61.6577 17.1567 61.4407 16.81 61.2779 16.41C61.1286 16.01 61.054 15.5567 61.054 15.05V11.15H59.6295V9.25003H60.24C60.9862 9.25003 61.3593 8.88336 61.3593 8.15003V6.85002Z" fill="#101C26"/>
<path d="M67.3569 6.85002H69.3918V9.05003H71.4268V11.15H69.3918V14.95C69.3918 15.35 69.5072 15.67 69.7378 15.91C69.982 16.1367 70.3076 16.25 70.7146 16.25C70.8231 16.25 70.9113 16.25 70.9791 16.25C71.047 16.2367 71.108 16.2234 71.1623 16.21C71.2165 16.1967 71.2708 16.1767 71.3251 16.15V18.15C71.2301 18.19 71.1216 18.2234 70.9995 18.25C70.7688 18.3167 70.5043 18.35 70.2058 18.35C69.7446 18.35 69.3172 18.2767 68.9238 18.13C68.5439 17.97 68.2116 17.7434 67.9267 17.45C67.6553 17.1567 67.4383 16.81 67.2755 16.41C67.1262 16.01 67.0516 15.5567 67.0516 15.05V11.15H65.6271V9.25003H66.2376C66.9838 9.25003 67.3569 8.88336 67.3569 8.15003V6.85002Z" fill="#101C26"/>
<path d="M80.4817 15.45C80.3596 15.7967 80.1696 16.1434 79.9119 16.49C79.6677 16.8367 79.3624 17.15 78.9961 17.43C78.6434 17.6967 78.2364 17.9167 77.7752 18.09C77.3275 18.2634 76.8391 18.35 76.31 18.35C75.6723 18.35 75.0686 18.23 74.4988 17.99C73.9426 17.7367 73.4474 17.3967 73.0133 16.97C72.5927 16.5434 72.2536 16.05 71.9958 15.49C71.7516 14.9167 71.6295 14.3034 71.6295 13.65C71.6295 12.9967 71.7516 12.39 71.9958 11.83C72.2536 11.2567 72.5927 10.7567 73.0133 10.33C73.4474 9.90336 73.9426 9.57003 74.4988 9.33003C75.0686 9.07669 75.6723 8.95003 76.31 8.95003C76.9205 8.95003 77.497 9.06336 78.0397 9.29003C78.5824 9.51669 79.0572 9.83669 79.4642 10.25C79.8712 10.6634 80.19 11.1634 80.4206 11.75C80.6648 12.3234 80.7869 12.9567 80.7869 13.65C80.7869 13.7567 80.7801 13.8634 80.7666 13.97C80.753 14.0634 80.7394 14.1567 80.7259 14.25C80.7123 14.3567 80.6987 14.4567 80.6852 14.55H74.1732C74.2818 15.0034 74.5124 15.3834 74.8651 15.69C75.2179 15.9967 75.6995 16.15 76.31 16.15C76.622 16.15 76.8798 16.1167 77.0833 16.05C77.3003 15.9834 77.4835 15.9034 77.6327 15.81C77.7955 15.7034 77.9312 15.5834 78.0397 15.45H80.4817ZM76.31 11.15C75.6995 11.15 75.1975 11.3234 74.8041 11.67C74.4242 12.0167 74.18 12.4434 74.0715 12.95H78.5484C78.4399 12.4434 78.1889 12.0167 77.7955 11.67C77.4156 11.3234 76.9205 11.15 76.31 11.15Z" fill="#101C26"/>
<path d="M85.8696 8.95003C85.9781 8.95003 86.0731 8.95669 86.1545 8.97003C86.2359 8.98336 86.3105 8.99669 86.3783 9.01003C86.4462 9.02336 86.514 9.03669 86.5818 9.05003V11.45C86.514 11.4367 86.4394 11.4234 86.358 11.41C86.2901 11.3967 86.202 11.3834 86.0934 11.37C85.9985 11.3567 85.8899 11.35 85.7678 11.35C85.198 11.35 84.73 11.5367 84.3637 11.91C84.011 12.27 83.8346 12.75 83.8346 13.35V18.25H81.4944V9.05003H83.2241L83.6311 10.05C83.7939 9.85003 83.9906 9.67003 84.2213 9.51003C84.4112 9.36336 84.6418 9.23669 84.9132 9.13003C85.198 9.01003 85.5169 8.95003 85.8696 8.95003Z" fill="#101C26"/>
<path d="M95.3386 15.45C95.2165 15.7967 95.0266 16.1434 94.7688 16.49C94.5246 16.8367 94.2194 17.15 93.8531 17.43C93.5003 17.6967 93.0933 17.9167 92.6321 18.09C92.1844 18.2634 91.696 18.35 91.1669 18.35C90.5293 18.35 89.9255 18.23 89.3558 17.99C88.7995 17.7367 88.3044 17.3967 87.8702 16.97C87.4497 16.5434 87.1105 16.05 86.8527 15.49C86.6085 14.9167 86.4864 14.3034 86.4864 13.65C86.4864 12.9967 86.6085 12.39 86.8527 11.83C87.1105 11.2567 87.4497 10.7567 87.8702 10.33C88.3044 9.90336 88.7995 9.57003 89.3558 9.33003C89.9255 9.07669 90.5293 8.95003 91.1669 8.95003C91.7774 8.95003 92.354 9.06336 92.8966 9.29003C93.4393 9.51669 93.9141 9.83669 94.3211 10.25C94.7281 10.6634 95.0469 11.1634 95.2775 11.75C95.5217 12.3234 95.6438 12.9567 95.6438 13.65C95.6438 13.7567 95.6371 13.8634 95.6235 13.97C95.6099 14.0634 95.5964 14.1567 95.5828 14.25C95.5692 14.3567 95.5557 14.4567 95.5421 14.55H89.0302C89.1387 15.0034 89.3693 15.3834 89.7221 15.69C90.0748 15.9967 90.5564 16.15 91.1669 16.15C91.4789 16.15 91.7367 16.1167 91.9402 16.05C92.1572 15.9834 92.3404 15.9034 92.4896 15.81C92.6524 15.7034 92.7881 15.5834 92.8966 15.45H95.3386ZM91.1669 11.15C90.5564 11.15 90.0544 11.3234 89.661 11.67C89.2811 12.0167 89.0369 12.4434 88.9284 12.95H93.4054C93.2968 12.4434 93.0458 12.0167 92.6524 11.67C92.2726 11.3234 91.7774 11.15 91.1669 11.15Z" fill="#101C26"/>
<path d="M104.695 15.45C104.573 15.7967 104.383 16.1434 104.125 16.49C103.881 16.8367 103.575 17.15 103.209 17.43C102.856 17.6967 102.449 17.9167 101.988 18.09C101.54 18.2634 101.052 18.35 100.523 18.35C99.8854 18.35 99.2817 18.23 98.7119 17.99C98.1557 17.7367 97.6605 17.3967 97.2263 16.97C96.8058 16.5434 96.4666 16.05 96.2089 15.49C95.9647 14.9167 95.8426 14.3034 95.8426 13.65C95.8426 12.9967 95.9647 12.39 96.2089 11.83C96.4666 11.2567 96.8058 10.7567 97.2263 10.33C97.6605 9.90336 98.1557 9.57003 98.7119 9.33003C99.2817 9.07669 99.8854 8.95003 100.523 8.95003C101.133 8.95003 101.71 9.06336 102.253 9.29003C102.795 9.51669 103.27 9.83669 103.677 10.25C104.084 10.6634 104.403 11.1634 104.634 11.75C104.878 12.3234 105 12.9567 105 13.65C105 13.7567 104.993 13.8634 104.98 13.97C104.966 14.0634 104.952 14.1567 104.939 14.25C104.925 14.3567 104.912 14.4567 104.898 14.55H98.3863C98.4948 15.0034 98.7254 15.3834 99.0782 15.69C99.4309 15.9967 99.9125 16.15 100.523 16.15C100.835 16.15 101.093 16.1167 101.296 16.05C101.513 15.9834 101.697 15.9034 101.846 15.81C102.009 15.7034 102.144 15.5834 102.253 15.45H104.695ZM100.523 11.15C99.9125 11.15 99.4106 11.3234 99.0171 11.67C98.6373 12.0167 98.3931 12.4434 98.2845 12.95H102.761C102.653 12.4434 102.402 12.0167 102.009 11.67C101.629 11.3234 101.133 11.15 100.523 11.15Z" fill="#101C26"/>
<defs>
<clipPath id="clip0_131_1274">
<rect width="24.4197" height="24" fill="white" transform="matrix(-1 0 0 1 24.4199 0)"/>
</clipPath>
</defs>
</svg>
