<svg width="25" height="24" viewBox="0 0 25 24" fill="none" xmlns="http://www.w3.org/2000/svg">
<g clip-path="url(#clip0_2389_345)">
<path d="M24.4888 12.2245C24.4888 11.2413 24.4071 10.5238 24.2304 9.77966H12.7393V14.2176H19.4843C19.3484 15.3205 18.614 16.9815 16.9821 18.0976L16.9592 18.2462L20.5925 20.9964L20.8442 21.0209C23.156 18.9347 24.4888 15.8653 24.4888 12.2245Z" fill="#4285F4"/>
<path d="M12.7393 23.9176C16.0438 23.9176 18.8179 22.8545 20.8442 21.0209L16.9821 18.0976C15.9486 18.8018 14.5615 19.2934 12.7393 19.2934C9.50273 19.2934 6.75576 17.2074 5.77654 14.324L5.63301 14.3359L1.85507 17.1927L1.80566 17.3269C3.81829 21.2334 7.95238 23.9176 12.7393 23.9176Z" fill="#34A853"/>
<path d="M5.77634 14.3239C5.51797 13.5798 5.36844 12.7825 5.36844 11.9587C5.36844 11.1349 5.51797 10.3376 5.76275 9.59354L5.75591 9.43507L1.93063 6.53235L1.80547 6.59052C0.975969 8.21162 0.5 10.032 0.5 11.9587C0.5 13.8854 0.975969 15.7058 1.80547 17.3269L5.77634 14.3239Z" fill="#FBBC05"/>
<path d="M12.7393 4.62403C15.0374 4.62403 16.5877 5.59402 17.4717 6.40461L20.9258 3.10928C18.8044 1.1826 16.0438 0 12.7393 0C7.95238 0 3.81829 2.68406 1.80566 6.59056L5.76295 9.59359C6.75576 6.7102 9.50273 4.62403 12.7393 4.62403Z" fill="#EB4335"/>
</g>
<defs>
<clipPath id="clip0_2389_345">
<rect width="24" height="24" fill="white" transform="translate(0.5)"/>
</clipPath>
</defs>
</svg>
