<svg width="25" height="24" viewBox="0 0 25 24" fill="none" xmlns="http://www.w3.org/2000/svg">
<g clip-path="url(#clip0_131_1275)">
<path d="M12.1164 0.1644C18.9137 0.1149 24.4199 5.5164 24.4199 12.1057V22.74C24.4199 23.3453 23.9137 23.8359 23.2894 23.8359H12.319C5.52159 23.8359 -0.0505371 18.4983 0.000543594 11.9093C0.0506229 5.44445 5.44738 0.212963 12.1164 0.1644Z" fill="#E2C700"/>
<path d="M2.0197 5.47931C4.08026 13.5288 11.4908 19.4881 20.3172 19.4881C21.7262 19.4881 23.0991 19.3359 24.4199 19.048V22.7401C24.4199 23.3453 23.9138 23.836 23.2894 23.836H12.319C5.52159 23.836 -0.0505371 18.4984 0.000543594 11.9093C0.0189533 9.534 0.759844 7.32572 2.0197 5.47931Z" fill="#F7E353"/>
</g>
<defs>
<clipPath id="clip0_131_1275">
<rect width="24.4197" height="24" fill="white" transform="matrix(-1 0 0 1 24.4199 0)"/>
</clipPath>
</defs>
</svg>
