<svg width="24" height="24" viewBox="0 0 24 24" fill="none" xmlns="http://www.w3.org/2000/svg">
<path fill-rule="evenodd" clip-rule="evenodd" d="M5.5 3C5.77614 3 6 3.22386 6 3.5C6 3.77614 5.77614 4 5.5 4C4.67157 4 4 4.67157 4 5.5C4 5.77614 3.77614 6 3.5 6C3.22386 6 3 5.77614 3 5.5C3 4.11929 4.11929 3 5.5 3ZM13 12H17.5C17.7761 12 18 12.2239 18 12.5C18 12.7761 17.7761 13 17.5 13H13V17.5C13 17.7761 12.7761 18 12.5 18C12.2239 18 12 17.7761 12 17.5V13H7.5C7.22386 13 7 12.7761 7 12.5C7 12.2239 7.22386 12 7.5 12H12V7.5C12 7.22386 12.2239 7 12.5 7C12.7761 7 13 7.22386 13 7.5V12ZM19 3.5C19 3.77614 19.2239 4 19.5 4C20.3284 4 21 4.67157 21 5.5V5.56155C21 5.8377 21.2239 6.06155 21.5 6.06155C21.7761 6.06155 22 5.8377 22 5.56155V5.5C22 4.11929 20.8807 3 19.5 3C19.2239 3 19 3.22386 19 3.5ZM3 7.5C3 7.22386 3.22386 7 3.5 7C3.77614 7 4 7.22386 4 7.5V8.5C4 8.77614 3.77614 9 3.5 9C3.22386 9 3 8.77614 3 8.5V7.5ZM3.5 10C3.22386 10 3 10.2239 3 10.5V11.5C3 11.7761 3.22386 12 3.5 12C3.77614 12 4 11.7761 4 11.5V10.5C4 10.2239 3.77614 10 3.5 10ZM3 13.5C3 13.2239 3.22386 13 3.5 13C3.77614 13 4 13.2239 4 13.5V14.5C4 14.7761 3.77614 15 3.5 15C3.22386 15 3 14.7761 3 14.5V13.5ZM3.5 16C3.22386 16 3 16.2239 3 16.5V17.5C3 17.7761 3.22386 18 3.5 18C3.77614 18 4 17.7761 4 17.5V16.5C4 16.2239 3.77614 16 3.5 16ZM21 7.5C21 7.22386 21.2239 7 21.5 7C21.7761 7 22 7.22386 22 7.5V8.5C22 8.77614 21.7761 9 21.5 9C21.2239 9 21 8.77614 21 8.5V7.5ZM21.5 10C21.2239 10 21 10.2239 21 10.5V11.5C21 11.7761 21.2239 12 21.5 12C21.7761 12 22 11.7761 22 11.5V10.5C22 10.2239 21.7761 10 21.5 10ZM21 13.5C21 13.2239 21.2239 13 21.5 13C21.7761 13 22 13.2239 22 13.5V14.5C22 14.7761 21.7761 15 21.5 15C21.2239 15 21 14.7761 21 14.5V13.5ZM21.5 16C21.2239 16 21 16.2239 21 16.5V17.5C21 17.7761 21.2239 18 21.5 18C21.7761 18 22 17.7761 22 17.5V16.5C22 16.2239 21.7761 16 21.5 16ZM3 19.5C3 19.2239 3.22386 19 3.5 19C3.77614 19 4 19.2239 4 19.5C4 20.3284 4.67157 21 5.5 21C5.77614 21 6 21.2239 6 21.5C6 21.7761 5.77614 22 5.5 22C4.11929 22 3 20.8807 3 19.5ZM7 3.5C7 3.77614 7.22386 4 7.5 4H8.5C8.77614 4 9 3.77614 9 3.5C9 3.22386 8.77614 3 8.5 3H7.5C7.22386 3 7 3.22386 7 3.5ZM10.5 4C10.2239 4 10 3.77614 10 3.5C10 3.22386 10.2239 3 10.5 3H11.5C11.7761 3 12 3.22386 12 3.5C12 3.77614 11.7761 4 11.5 4H10.5ZM13 3.5C13 3.77614 13.2239 4 13.5 4H14.5C14.7761 4 15 3.77614 15 3.5C15 3.22386 14.7761 3 14.5 3H13.5C13.2239 3 13 3.22386 13 3.5ZM16.5 4C16.2239 4 16 3.77614 16 3.5C16 3.22386 16.2239 3 16.5 3H17.5C17.7761 3 18 3.22386 18 3.5C18 3.77614 17.7761 4 17.5 4H16.5ZM7 21.5C7 21.7761 7.22386 22 7.5 22H8.5C8.77614 22 9 21.7761 9 21.5C9 21.2239 8.77614 21 8.5 21H7.5C7.22386 21 7 21.2239 7 21.5ZM10.5 22C10.2239 22 10 21.7761 10 21.5C10 21.2239 10.2239 21 10.5 21H11.5C11.7761 21 12 21.2239 12 21.5C12 21.7761 11.7761 22 11.5 22H10.5ZM13 21.5C13 21.7761 13.2239 22 13.5 22H14.5C14.7761 22 15 21.7761 15 21.5C15 21.2239 14.7761 21 14.5 21H13.5C13.2239 21 13 21.2239 13 21.5ZM16.5 22C16.2239 22 16 21.7761 16 21.5C16 21.2239 16.2239 21 16.5 21H17.5C17.7761 21 18 21.2239 18 21.5C18 21.7761 17.7761 22 17.5 22H16.5ZM19 21.5C19 21.7761 19.2239 22 19.5 22C20.8807 22 22 20.8807 22 19.5C22 19.2239 21.7761 19 21.5 19C21.2239 19 21 19.2239 21 19.5C21 20.3284 20.3284 21 19.5 21C19.2239 21 19 21.2239 19 21.5Z" fill="#101C26"/>
</svg>
