<svg width="24" height="24" viewBox="0 0 24 24" fill="none" xmlns="http://www.w3.org/2000/svg">
<path fill-rule="evenodd" clip-rule="evenodd" d="M7 12C7 14.7614 9.23858 17 12 17C14.7614 17 17 14.7614 17 12C17 9.23858 14.7614 7 12 7C9.23858 7 7 9.23858 7 12ZM16 12C16 14.2091 14.2091 16 12 16C9.79086 16 8 14.2091 8 12C8 9.79086 9.79086 8 12 8C14.2091 8 16 9.79086 16 12Z" fill="#101C26"/>
<path d="M17.1446 18.1267C17.356 17.949 17.6714 17.9763 17.8491 18.1877C18.0268 18.399 17.9995 18.7144 17.7881 18.8921C16.1784 20.2453 14.1467 21 12 21C7.02944 21 3 16.9706 3 12C3 7.02944 7.02944 3 12 3C16.9706 3 21 7.02944 21 12V14.5C21 15.8807 19.8807 17 18.5 17C17.1193 17 16 15.8807 16 14.5V8.5C16 8.22386 16.2239 8 16.5 8C16.7761 8 17 8.22386 17 8.5V14.5C17 15.3284 17.6716 16 18.5 16C19.3284 16 20 15.3284 20 14.5V12C20 7.58172 16.4183 4 12 4C7.58172 4 4 7.58172 4 12C4 16.4183 7.58172 20 12 20C13.9091 20 15.7135 19.3297 17.1446 18.1267Z" fill="#101C26"/>
</svg>
