<svg width="86" height="86" viewBox="0 0 86 86" fill="none" xmlns="http://www.w3.org/2000/svg">
<path fill-rule="evenodd" clip-rule="evenodd" d="M59.7654 26.2353C70.9818 29.6327 78.8334 40.0198 78.8334 51.9584C78.8334 56.5855 77.6608 61.0448 75.4637 64.9972L78.7644 76.5495C79.1506 77.9011 77.901 79.1506 76.5495 78.7645L64.9971 75.4638C61.0448 77.6609 56.5855 78.8334 51.9584 78.8334C40.0312 78.8334 29.6384 70.9954 26.2352 59.7651C24.4182 59.2145 22.6657 58.4715 21.0029 57.5471L9.45056 60.8478C8.09901 61.234 6.84946 59.9844 7.23562 58.6329L10.5363 47.0805C8.33921 43.1282 7.16668 38.6689 7.16668 34.0417C7.16668 19.1991 19.199 7.16675 34.0417 7.16675C46.1694 7.16675 56.4208 15.1998 59.7654 26.2353ZM20.7468 53.8936C21.2213 53.758 21.7307 53.8241 22.1548 54.0764C25.7219 56.1977 29.7965 57.3334 34.0417 57.3334C46.9053 57.3334 57.3333 46.9054 57.3333 34.0417C57.3333 21.1781 46.9053 10.7501 34.0417 10.7501C21.178 10.7501 10.75 21.1781 10.75 34.0417C10.75 38.2869 11.8857 42.3615 14.0071 45.9286C14.2593 46.3527 14.3254 46.8621 14.1898 47.3366L11.5671 56.5164L20.7468 53.8936ZM60.9166 34.0417C60.9166 32.7882 60.8308 31.5547 60.6647 30.3468C69.3373 33.8375 75.2499 42.3144 75.2499 51.9584C75.2499 56.2036 74.1142 60.2781 71.9929 63.8452C71.7407 64.2694 71.6745 64.7788 71.8101 65.2532L74.4329 74.433L65.2531 71.8102C64.7786 71.6747 64.2692 71.7408 63.8451 71.993C60.278 74.1144 56.2034 75.2501 51.9583 75.2501C42.3228 75.2501 33.8416 69.3468 30.3468 60.6646C31.5618 60.8317 32.7956 60.9167 34.0416 60.9167C48.8842 60.9167 60.9166 48.8844 60.9166 34.0417Z" fill="#B5BDC5"/>
</svg>
