<svg width="24" height="24" viewBox="0 0 24 24" fill="none" xmlns="http://www.w3.org/2000/svg">
<path fill-rule="evenodd" clip-rule="evenodd" d="M20.9942 3.42363C21.2955 5.23874 21.0488 7.06439 20.307 8.70584C20.2261 8.88488 20.0479 8.99995 19.8514 8.99995H18.7071L19.3447 9.63756C19.5178 9.81062 19.5401 10.0835 19.3976 10.2824C17.9901 12.2459 15.8704 13.588 13.4393 13.9931C12.5328 14.1442 11.6093 14.1584 10.6996 14.0356C9.88602 14.6765 9.15814 14.9999 8.5 14.9999C8.22386 14.9999 8 14.7761 8 14.4999C8 14.2238 8.22386 13.9999 8.5 13.9999C8.89025 13.9999 9.38367 13.7801 9.96917 13.3363C9.28369 8.42178 12.6364 3.82745 17.5607 3.00675C18.559 2.84036 19.5779 2.84004 20.5763 3.00577C20.6778 3.02136 20.7754 3.06823 20.8536 3.14639C20.9317 3.22455 20.9786 3.32216 20.9942 3.42363ZM20.1123 4.59476L17.8536 6.8535C17.6583 7.04876 17.3417 7.04876 17.1464 6.8535C16.9512 6.65824 16.9512 6.34165 17.1464 6.14639L19.4044 3.88848C18.8434 3.86566 18.2806 3.90055 17.7251 3.99314C13.5631 4.6868 10.6608 8.40534 10.8935 12.5234C11.274 12.148 11.6821 11.7004 12.1159 11.1799C12.2927 10.9677 12.608 10.9391 12.8201 11.1158C13.0322 11.2926 13.0609 11.6079 12.8841 11.82C12.478 12.3074 12.0894 12.7393 11.7171 13.1154C12.2378 13.1289 12.7595 13.0927 13.2749 13.0067C15.3002 12.6692 17.0813 11.6035 18.3299 10.0369L17.1464 8.8535C16.8315 8.53852 17.0545 7.99995 17.5 7.99995H19.5218C19.9588 6.92309 20.1616 5.76637 20.1123 4.59476ZM20.5 11.9999C20.2239 11.9999 20 12.2238 20 12.4999V18.4999C20 19.3284 19.3284 19.9999 18.5 19.9999H5.5C4.67157 19.9999 4 19.3284 4 18.4999V5.49995C4 4.67152 4.67157 3.99995 5.5 3.99995H11.5C11.7761 3.99995 12 3.77609 12 3.49995C12 3.2238 11.7761 2.99995 11.5 2.99995H5.5C4.11929 2.99995 3 4.11923 3 5.49995V18.4999C3 19.8807 4.11929 20.9999 5.5 20.9999H18.5C19.8807 20.9999 21 19.8807 21 18.4999V12.4999C21 12.2238 20.7761 11.9999 20.5 11.9999Z" fill="#101C26"/>
</svg>
