<svg width="18" height="16" viewBox="0 0 18 16" fill="none" xmlns="http://www.w3.org/2000/svg">
<path fill-rule="evenodd" clip-rule="evenodd" d="M18 6C18 2.3027 15.8508 0 12.5 0C10.9723 0 9.79032 0.523414 9 1.55573C8.20968 0.523414 7.0277 0 5.5 0C2.14919 0 0 2.3027 0 6C0 8.89395 2.92838 12.1668 8.72837 15.9198C8.89367 16.0267 9.10633 16.0267 9.27163 15.9198C15.0716 12.1668 18 8.89395 18 6ZM12.5 1C15.2825 1 17 2.84016 17 6C17 8.39913 14.3513 11.399 9 14.9034C3.64867 11.399 1 8.39913 1 6C1 2.84016 2.71748 1 5.5 1C6.98354 1 7.97396 1.56595 8.55279 2.72361C8.73705 3.09213 9.26295 3.09213 9.44721 2.72361C10.026 1.56595 11.0165 1 12.5 1Z" fill="#101C26"/>
</svg>
