<svg width="24" height="24" viewBox="0 0 24 24" fill="none" xmlns="http://www.w3.org/2000/svg">
<path d="M17.1459 11.147C17.3408 10.9514 17.6574 10.951 17.853 11.1459C18.0485 11.3409 18.049 11.6575 17.8541 11.853L11.9096 17.8157C10.3312 19.3988 7.76834 19.4027 6.18492 17.8241C4.60175 16.2409 4.60175 13.6808 6.18131 12.1012L12.4395 5.87707C13.6049 4.7181 15.4883 4.72067 16.6505 5.88283C17.8123 7.04462 17.8125 8.9282 16.651 10.0903L10.2949 16.4497C9.54328 17.2018 8.32431 17.2021 7.57223 16.4504C6.81985 15.698 6.81777 14.4793 7.56727 13.7247L12.1292 9.13159C12.3238 8.93566 12.6403 8.93458 12.8363 9.12917C13.0322 9.32377 13.0333 9.64035 12.8387 9.83628L8.27678 14.4294C7.91553 14.7931 7.91653 15.3805 8.27897 15.743C8.6406 16.1044 9.22641 16.1042 9.58762 15.7428L15.9437 9.38338C16.7149 8.61183 16.7147 7.36128 15.9434 6.58993C15.171 5.81755 13.9192 5.81584 13.1447 6.58611L6.89431 12.8024C5.69938 13.9973 5.69938 15.9244 6.88766 17.1126C8.08325 18.3046 10.013 18.3017 11.2014 17.1096L17.1459 11.147Z" fill="#101C26"/>
</svg>
