<svg width="24" height="24" viewBox="0 0 24 24" fill="none" xmlns="http://www.w3.org/2000/svg">
<path fill-rule="evenodd" clip-rule="evenodd" d="M5.5 3C4.11929 3 3 4.11929 3 5.5V18.5C3 19.8807 4.11929 21 5.5 21H18.5C19.8807 21 21 19.8807 21 18.5V5.5C21 4.11929 19.8807 3 18.5 3H5.5ZM20 15.2929V5.5C20 4.67157 19.3284 4 18.5 4H5.5C4.67157 4 4 4.67157 4 5.5V12.2929L7.14645 9.14645C7.34171 8.95118 7.65829 8.95118 7.85355 9.14645L13.5 14.7929L16.1464 12.1464C16.3417 11.9512 16.6583 11.9512 16.8536 12.1464L20 15.2929ZM20 16.7071L16.5 13.2071L13.8536 15.8536C13.6583 16.0488 13.3417 16.0488 13.1464 15.8536L7.5 10.2071L4 13.7071V18.5C4 19.3284 4.67157 20 5.5 20H18.5C19.3284 20 20 19.3284 20 18.5V16.7071ZM15 6H17C17.5523 6 18 6.44772 18 7V9C18 9.55228 17.5523 10 17 10H15C14.4477 10 14 9.55228 14 9V7C14 6.44772 14.4477 6 15 6ZM15 9V7H17V9H15Z" fill="#101C26"/>
</svg>
